999
"DXF R12 Output" (www.mydxf.blogspot.com)
 0 
SECTION
 2 
HEADER
 9 
$ACADVER
 1 
AC1009
 9 
$EXTMIN
 10 
 0 
 20 
 0 
 9 
$EXTMAX
 10 
 8.5 
 20 
 11 
 0 
ENDSEC
 0 
SECTION
 2 
ENTITIES
0
LINE
8
Panel
10
62.854111
20
263.500088
11
357.145891
21
263.500088
0
LINE
8
Panel
10
357.145891
20
263.500088
11
357.145891
21
33.500088
0
LINE
8
Panel
10
357.145891
20
33.500088
11
62.854111
21
33.500088
0
LINE
8
Panel
10
62.854111
20
33.500088
11
62.854111
21
263.500088
0
LINE
8
Center
10
137.888710
20
199.685370
11
139.712150
21
197.861920
0
LINE
8
Center
10
139.712150
20
199.685370
11
137.888710
21
197.861920
0
LINE
8
Center
10
167.387810
20
199.455370
11
169.211250
21
197.631920
0
LINE
8
Center
10
169.211250
20
199.455370
11
167.387810
21
197.631920
0
LINE
8
Center
10
193.528910
20
185.784370
11
195.352350
21
183.960920
0
LINE
8
Center
10
195.352350
20
185.784370
11
193.528910
21
183.960920
0
LINE
8
Center
10
220.994210
20
199.296370
11
222.817650
21
197.472920
0
LINE
8
Center
10
222.817650
20
199.296370
11
220.994210
21
197.472920
0
LINE
8
Center
10
247.547210
20
212.198370
11
249.370650
21
210.374920
0
LINE
8
Center
10
249.370650
20
212.198370
11
247.547210
21
210.374920
0
LINE
8
Center
10
277.020210
20
210.871370
11
278.843650
21
209.047920
0
LINE
8
Center
10
278.843650
20
210.871370
11
277.020210
21
209.047920
0
LINE
8
Center
10
306.113210
20
205.988370
11
307.936650
21
204.164920
0
LINE
8
Center
10
307.936650
20
205.988370
11
306.113210
21
204.164920
0
LINE
8
Center
10
304.083210
20
175.446370
11
305.906650
21
173.622920
0
LINE
8
Center
10
305.906650
20
175.446370
11
304.083210
21
173.622920
0
LINE
8
Center
10
274.990210
20
180.329370
11
276.813650
21
178.505920
0
LINE
8
Center
10
276.813650
20
180.329370
11
274.990210
21
178.505920
0
LINE
8
Center
10
245.517210
20
181.656370
11
247.340650
21
179.832920
0
LINE
8
Center
10
247.340650
20
181.656370
11
245.517210
21
179.832920
0
LINE
8
Center
10
218.964210
20
168.754370
11
220.787650
21
166.930920
0
LINE
8
Center
10
220.787650
20
168.754370
11
218.964210
21
166.930920
0
LINE
8
Center
10
230.872210
20
141.941370
11
232.695650
21
140.117920
0
LINE
8
Center
10
232.695650
20
141.941370
11
230.872210
21
140.117920
0
LINE
8
Center
10
173.149110
20
148.187370
11
174.972550
21
146.363920
0
LINE
8
Center
10
174.972550
20
148.187370
11
173.149110
21
146.363920
0
LINE
8
Center
10
200.357210
20
129.953370
11
202.180650
21
128.129920
0
LINE
8
Center
10
202.180650
20
129.953370
11
200.357210
21
128.129920
0
LINE
8
Center
10
108.043340
20
242.974370
11
109.866780
21
241.150920
0
LINE
8
Center
10
109.866780
20
242.974370
11
108.043340
21
241.150920
0
LINE
8
Center
10
130.043410
20
242.974370
11
131.866850
21
241.150920
0
LINE
8
Center
10
131.866850
20
242.974370
11
130.043410
21
241.150920
0
LINE
8
Center
10
152.043410
20
242.974370
11
153.866850
21
241.150920
0
LINE
8
Center
10
153.866850
20
242.974370
11
152.043410
21
241.150920
0
LINE
8
Center
10
174.043410
20
242.974370
11
175.866850
21
241.150920
0
LINE
8
Center
10
175.866850
20
242.974370
11
174.043410
21
241.150920
0
LINE
8
Center
10
75.819310
20
250.534370
11
77.642750
21
248.710920
0
LINE
8
Center
10
77.642750
20
250.534370
11
75.819310
21
248.710920
0
LINE
8
Center
10
75.842810
20
149.311370
11
77.666250
21
147.487920
0
LINE
8
Center
10
77.666250
20
149.311370
11
75.842810
21
147.487920
0
LINE
8
Center
10
75.842810
20
48.112370
11
77.666250
21
46.288920
0
LINE
8
Center
10
77.666250
20
48.112370
11
75.842810
21
46.288920
0
LINE
8
Center
10
209.188210
20
250.511370
11
211.011650
21
248.687920
0
LINE
8
Center
10
211.011650
20
250.511370
11
209.188210
21
248.687920
0
LINE
8
Center
10
342.534210
20
149.311370
11
344.357650
21
147.487920
0
LINE
8
Center
10
344.357650
20
149.311370
11
342.534210
21
147.487920
0
LINE
8
Center
10
342.534210
20
250.511370
11
344.357650
21
248.687920
0
LINE
8
Center
10
344.357650
20
250.511370
11
342.534210
21
248.687920
0
LINE
8
Center
10
342.534210
20
48.112370
11
344.357650
21
46.288920
0
LINE
8
Center
10
344.357650
20
48.112370
11
342.534210
21
46.288920
0
LINE
8
Center
10
209.188210
20
48.112370
11
211.011650
21
46.288920
0
LINE
8
Center
10
211.011650
20
48.112370
11
209.188210
21
46.288920
 0 
ENDSEC
 0 
EOF